<?xml version="1.0" encoding="UTF-8" standalone="no"?>
<!-- Created with Inkscape (http://www.inkscape.org/) -->

<svg
   xmlns:dc="http://purl.org/dc/elements/1.1/"
   xmlns:cc="http://creativecommons.org/ns#"
   xmlns:rdf="http://www.w3.org/1999/02/22-rdf-syntax-ns#"
   xmlns:svg="http://www.w3.org/2000/svg"
   xmlns="http://www.w3.org/2000/svg"
   xmlns:sodipodi="http://sodipodi.sourceforge.net/DTD/sodipodi-0.dtd"
   xmlns:inkscape="http://www.inkscape.org/namespaces/inkscape"
   width="400"
   height="400"
   id="svg3938"
   version="1.1"
   inkscape:version="0.48.5 r10040"
   sodipodi:docname="raX_exit180.svg"
   inkscape:export-filename="/Users/Shared/data/Projects/Android/RBook/bookpict/svg/pict/raX_exit180.png"
   inkscape:export-xdpi="14.4"
   inkscape:export-ydpi="14.4">
  <defs
     id="defs3940" />
  <sodipodi:namedview
     id="base"
     pagecolor="#ffffff"
     bordercolor="#666666"
     borderopacity="1.0"
     inkscape:pageopacity="0.0"
     inkscape:pageshadow="2"
     inkscape:zoom="1.5"
     inkscape:cx="-13.650964"
     inkscape:cy="160.37912"
     inkscape:document-units="px"
     inkscape:current-layer="layer1"
     showgrid="true"
     inkscape:window-width="1478"
     inkscape:window-height="908"
     inkscape:window-x="274"
     inkscape:window-y="45"
     inkscape:window-maximized="0"
     inkscape:snap-grids="false">
    <inkscape:grid
       type="xygrid"
       id="grid3946"
       empspacing="5"
       visible="true"
       enabled="true"
       snapvisiblegridlinesonly="true" />
  </sodipodi:namedview>
  <metadata
     id="metadata3943">
    <rdf:RDF>
      <cc:Work
         rdf:about="">
        <dc:format>image/svg+xml</dc:format>
        <dc:type
           rdf:resource="http://purl.org/dc/dcmitype/StillImage" />
        <dc:title></dc:title>
      </cc:Work>
    </rdf:RDF>
  </metadata>
  <g
     inkscape:label="Calque 1"
     inkscape:groupmode="layer"
     id="layer1"
     transform="translate(0,-652.36218)">
    <rect
       style="fill:#808080;fill-opacity:1;stroke:none"
       id="rect3948"
       width="80"
       height="120"
       x="160"
       y="912.36218" />
    <rect
       style="fill:#808080;fill-opacity:1;stroke:none"
       id="rect3948-1"
       width="80"
       height="90"
       x="-346.66666"
       y="698.36218" />
    <path
       style="fill:#808080;fill-opacity:1;stroke:#808080;stroke-width:1.06051171;stroke-linecap:round;stroke-linejoin:miter;stroke-miterlimit:4;stroke-opacity:1;stroke-dasharray:none"
       d="m 187.23126,942.36218 c -19.53825,-2.85343 -37.31994,-11.77312 -51.25552,-25.7109 -14.25847,-14.26072 -23.00571,-31.68306 -26.03674,-51.85876 -0.92006,-6.12432 -0.80661,-20.1111 0.21297,-26.25379 6.62526,-39.91586 36.99569,-70.05292 76.8347,-76.24432 5.97974,-0.92931 20.72549,-0.92204 26.23164,0.0129 20.85237,3.54086 37.12129,11.86716 51.34703,26.27896 14.04689,14.2306 22.29395,30.67069 25.43466,50.70265 1.26554,8.07185 0.85149,23.11494 -0.85562,31.08565 -5.97067,27.87794 -23.72627,50.91095 -48.98757,63.54787 -15.46819,7.73794 -35.67119,10.95959 -52.92555,8.43971 l 0,0 z m 20.56459,-64.75835 c 9.22609,-2.62959 16.71761,-11.20355 18.32653,-20.97451 1.83466,-11.14193 -3.85266,-22.638 -13.68576,-27.66372 -4.27274,-2.1838 -7.49754,-2.95596 -12.37236,-2.9625 -5.33596,-0.007 -9.4221,1.08391 -13.6357,3.641 -5.97316,3.62489 -10.279,9.38949 -11.92925,15.9707 -5.08052,20.26124 13.11408,37.74138 33.29654,31.98903 z"
       id="path3894"
       inkscape:connector-curvature="0" />
    <rect
       style="fill:#ffff00;fill-opacity:1;stroke:none"
       id="rect3968-8"
       width="60"
       height="110"
       x="170"
       y="892.36218" />
    <path
       sodipodi:type="arc"
       style="fill:none;stroke:#ffff00;stroke-width:0.59292699;stroke-linecap:round;stroke-linejoin:miter;stroke-miterlimit:4;stroke-opacity:1;stroke-dasharray:none"
       id="path3896"
       sodipodi:cx="200"
       sodipodi:cy="205"
       sodipodi:rx="50"
       sodipodi:ry="45"
       d="m 250,205 c 0,24.85281 -22.38576,45 -50,45 -27.61424,0 -50,-20.14719 -50,-45 0,-24.85281 22.38576,-45 50,-45 27.61424,0 50,20.14719 50,45 z"
       transform="matrix(0.8,0,0,0.88888911,-257.33333,610.80658)" />
    <path
       sodipodi:type="arc"
       style="fill:none;stroke:#ffff00;stroke-width:0.48327407;stroke-linecap:round;stroke-linejoin:miter;stroke-miterlimit:4;stroke-opacity:1;stroke-dasharray:none"
       id="path3898"
       sodipodi:cx="190"
       sodipodi:cy="200"
       sodipodi:rx="90"
       sodipodi:ry="80"
       d="m 280,200 c 0,44.18278 -40.29437,80 -90,80 -49.70563,0 -90,-35.81722 -90,-80 0,-44.18278 40.29437,-80 90,-80 49.70563,0 90,35.81722 90,80 z"
       transform="matrix(0.97747868,0,0,1.0950797,-283.40882,574.01844)" />
    <path
       style="fill:none;stroke:#ffff00;stroke-width:0.73590362px;stroke-linecap:butt;stroke-linejoin:miter;stroke-opacity:1"
       d="m -99.333333,782.13356 0,102.89529 0,0"
       id="path3902"
       inkscape:connector-curvature="0" />
    <path
       style="fill:#ffff00;stroke:#ffff00;stroke-width:0.73590362px;stroke-linecap:butt;stroke-linejoin:miter;stroke-opacity:1"
       d="m -96.000001,796.36217 -75.877059,-69.49904 0,0"
       id="path3902-7"
       inkscape:connector-curvature="0" />
    <path
       style="fill:#ffff00;stroke:#ffff00;stroke-width:0.73590362px;stroke-linecap:butt;stroke-linejoin:miter;stroke-opacity:1"
       d="m -96.061467,788.946 -75.877063,69.49904 0,0"
       id="path3902-7-0"
       inkscape:connector-curvature="0" />
    <path
       style="fill:none;stroke:#ffff00;stroke-width:0.73590362px;stroke-linecap:butt;stroke-linejoin:miter;stroke-opacity:1"
       d="m -95.88568,791.69552 -102.89529,0 0,0"
       id="path3902-72"
       inkscape:connector-curvature="0" />
    <path
       sodipodi:type="arc"
       style="fill:none;stroke:#000000;stroke-opacity:1"
       id="path3129"
       sodipodi:cx="199"
       sodipodi:cy="200"
       sodipodi:rx="27.666666"
       sodipodi:ry="26"
       d="m 226.66667,200 c 0,14.3594 -12.38679,26 -27.66667,26 -15.27988,0 -27.66667,-11.6406 -27.66667,-26 0,-14.3594 12.38679,-26 27.66667,-26 15.27988,0 27.66667,11.6406 27.66667,26 z"
       transform="matrix(0.8408144,0,0,0.91549445,-327.66603,800.5864)" />
    <path
       sodipodi:type="arc"
       style="fill:none;stroke:#000000;stroke-width:0.29800433;stroke-miterlimit:4;stroke-opacity:1;stroke-dasharray:none"
       id="path3129-1"
       sodipodi:cx="199"
       sodipodi:cy="200"
       sodipodi:rx="27.666666"
       sodipodi:ry="26"
       d="m 226.66667,200 c 0,14.3594 -12.38679,26 -27.66667,26 -15.27988,0 -27.66667,-11.6406 -27.66667,-26 0,-14.3594 12.38679,-26 27.66667,-26 15.27988,0 27.66667,11.6406 27.66667,26 z"
       transform="matrix(3.445819,0,0,3.6672643,-845.39912,251.22698)" />
    <path
       style="fill:none;stroke:#000000;stroke-width:0.84271991px;stroke-linecap:butt;stroke-linejoin:miter;stroke-opacity:1"
       d="m -157.44821,980.33274 -87.10358,79.39226 0,0"
       id="path3902-7-0-1"
       inkscape:connector-curvature="0" />
    <path
       style="fill:#b3b3b3;fill-opacity:1;stroke:none"
       d="m -315.93901,1106.665 c -5.09222,-1.6474 -8.93505,-3.5392 -11.1481,-5.4883 -1.12395,-0.9899 -2.31575,-2.8725 -2.31942,-3.6638 l -0.003,-0.5965 24.60358,0 24.60357,0 0.21653,0.545 c 0.17148,0.4315 1.47085,1.2643 3.06798,1.9663 0.15827,0.07 -35.27884,7.9674 -36.04168,8.0326 -0.2269,0.019 -1.56776,-0.3385 -2.97969,-0.7953 l 0,0 z"
       id="path3955"
       inkscape:connector-curvature="0" />
    <path
       style="fill:#ffffff;stroke:#000000;stroke-width:0.75698149000000003px;stroke-linecap:butt;stroke-linejoin:miter;stroke-opacity:1"
       d="m -267.53766,983.74832 108.87278,-0.51305 0,0"
       id="path3902-4"
       inkscape:connector-curvature="0"
       inkscape:transform-center-x="54.813091"
       inkscape:transform-center-y="0.636804" />
    <path
       sodipodi:type="arc"
       style="fill:none;stroke:#000000;stroke-width:0.29800433;stroke-miterlimit:4;stroke-opacity:1;stroke-dasharray:none"
       id="path3129-1-8"
       sodipodi:cx="199"
       sodipodi:cy="200"
       sodipodi:rx="27.666666"
       sodipodi:ry="26"
       d="m 226.66667,200 c 0,14.3594 -12.38679,26 -27.66667,26 -15.27988,0 -27.66667,-11.6406 -27.66667,-26 0,-14.3594 12.38679,-26 27.66667,-26 15.27988,0 27.66667,11.6406 27.66667,26 z"
       transform="matrix(3.6211498,0,0,3.8543389,-880.26329,213.17891)" />
    <path
       sodipodi:type="arc"
       style="fill:none;stroke:#000000;stroke-width:0.29800433;stroke-miterlimit:4;stroke-opacity:1;stroke-dasharray:none"
       id="path3129-1-0"
       sodipodi:cx="199"
       sodipodi:cy="200"
       sodipodi:rx="27.666666"
       sodipodi:ry="26"
       d="m 226.66667,200 c 0,14.3594 -12.38679,26 -27.66667,26 -15.27988,0 -27.66667,-11.6406 -27.66667,-26 0,-14.3594 12.38679,-26 27.66667,-26 15.27988,0 27.66667,11.6406 27.66667,26 z"
       transform="matrix(3.959314,0,0,4.2133969,-947.55979,141.3401)" />
    <path
       style="fill:none;stroke:#000000;stroke-width:0.84271991px;stroke-linecap:butt;stroke-linejoin:miter;stroke-opacity:1"
       d="m -158.65189,981.57007 -90.3253,75.70663 0,0"
       id="path3902-7-0-1-2"
       inkscape:connector-curvature="0"
       inkscape:transform-center-x="45.51162"
       inkscape:transform-center-y="38.336335" />
    <path
       style="fill:#808080;fill-opacity:1;stroke:none"
       d="m 300.9755,852.72913 -3.40243,-0.23468 -0.0801,-5.47539 c -0.15262,-10.43108 -3.88458,-28.6514 -7.55253,-36.87343 -0.56351,-1.26312 -0.49983,-1.34821 1.92769,-2.57539 1.38073,-0.69803 2.94439,-1.30688 3.47479,-1.35302 1.50808,-0.13119 5.55597,12.20692 7.49444,22.84322 1.47254,8.07982 2.5691,22.4387 1.79752,23.53744 -0.14126,0.20128 -1.78805,0.26032 -3.65935,0.13125 z"
       id="path4114"
       inkscape:connector-curvature="0" />
    <rect
       style="fill:#808080;fill-opacity:1;stroke:none"
       id="rect3948-1-9"
       width="80"
       height="90"
       x="161.27052"
       y="731.58002" />
    <path
       style="fill:#ffffff;fill-opacity:1;stroke:none"
       d="m 120.90577,905.74973 c -16.27611,-24.5008 -20.05338,-55.998 -10.04339,-83.74803 3.73373,-10.35078 13.85143,-26.8633 19.79661,-32.30891 l 1.69976,-1.55694 23.89643,22.81497 c 13.14303,12.54823 24.29952,23.18766 24.7922,23.64318 0.74175,0.68582 0.54489,1.31259 -1.14501,3.64543 -5.58103,7.70438 -6.36436,19.8755 -1.73401,26.94231 0.60973,0.93056 1.00539,1.98255 0.87925,2.33775 -0.28361,0.79865 -52.67251,44.73024 -53.3413,44.73024 -0.26539,0 -2.42563,-2.925 -4.80054,-6.5 l 0,0 z"
       id="path4234"
       inkscape:connector-curvature="0" />
    <path
       style="fill:#ffff00;fill-opacity:1;stroke:none"
       d="m 201.27052,671.58 60,50.00002 -120,0 60,-50.00002 z"
       id="path3972"
       inkscape:connector-curvature="0" />
    <rect
       style="fill:#ffff00;fill-opacity:1;stroke:none"
       id="rect3968"
       width="60"
       height="90"
       x="171.27052"
       y="721.58002"
       ry="0" />
    <path
       style="fill:#ffff00;fill-opacity:1;stroke:#ffff00;stroke-width:1.26666665;stroke-linecap:round;stroke-linejoin:miter;stroke-miterlimit:4;stroke-opacity:1;stroke-dasharray:none"
       d="m 199.63927,915.38517 0,-22.45917 3.5,-0.47081 c 24.5351,-3.30041 40.59695,-25.87414 35.50638,-49.90157 -2.47284,-11.67176 -10.9804,-22.48724 -21.72448,-27.61785 -5.70066,-2.72223 -10.81896,-4.13489 -14.98138,-4.13489 l -2.30052,0 0,-22.66666 0,-22.66667 3.16667,0.0116 c 4.50933,0.0166 13.50575,1.61373 20.5,3.63941 24.82235,7.18909 47.34256,28.21807 56.06116,52.34895 2.97145,8.22421 4.20885,13.86443 5.04594,23 1.40404,15.32298 -1.42275,30.34804 -8.41,44.70118 -13.226,27.16878 -40.1925,45.78178 -69.7551,48.14698 l -6.60867,0.5287 0,-22.4592 z"
       id="path3908"
       inkscape:connector-curvature="0" />
    <rect
       style="fill:#808080;fill-opacity:1;stroke:none"
       id="rect3948-3"
       width="4.666667"
       height="66"
       x="485.65485"
       y="-705.66058"
       transform="matrix(-0.6868926,0.72675894,-0.72675894,-0.6868926,0,0)" />
    <path
       style="fill:#808080;fill-opacity:1;stroke:none"
       d="m 284.99936,907.6188 -2.79847,-1.94939 2.74435,-4.73863 c 5.22823,-9.02755 11.3875,-26.57664 12.46487,-35.51505 0.16549,-1.37319 0.26385,-1.41347 2.97698,-1.21911 1.54319,0.11052 3.19751,0.39153 3.67626,0.62445 1.36111,0.66248 -1.50489,13.32715 -5.30643,23.44825 -2.88783,7.68847 -9.32419,20.57074 -10.55065,21.11697 -0.22461,0.1001 -1.66775,-0.69533 -3.2069,-1.76744 z"
       id="path4114-8"
       inkscape:connector-curvature="0" />
  </g>
</svg>
