<?xml version="1.0" encoding="UTF-8" standalone="no"?>
<!-- Created with Inkscape (http://www.inkscape.org/) -->

<svg
   xmlns:dc="http://purl.org/dc/elements/1.1/"
   xmlns:cc="http://creativecommons.org/ns#"
   xmlns:rdf="http://www.w3.org/1999/02/22-rdf-syntax-ns#"
   xmlns:svg="http://www.w3.org/2000/svg"
   xmlns="http://www.w3.org/2000/svg"
   xmlns:sodipodi="http://sodipodi.sourceforge.net/DTD/sodipodi-0.dtd"
   xmlns:inkscape="http://www.inkscape.org/namespaces/inkscape"
   width="400"
   height="400"
   id="svg3938"
   version="1.1"
   inkscape:version="0.48.5 r10040"
   sodipodi:docname="raX_exit270.svg"
   inkscape:export-filename="/Users/Shared/data/Projects/Android/RBook/bookpict/svg/pict/raX_exit270.png"
   inkscape:export-xdpi="14.4"
   inkscape:export-ydpi="14.4">
  <defs
     id="defs3940" />
  <sodipodi:namedview
     id="base"
     pagecolor="#ffffff"
     bordercolor="#666666"
     borderopacity="1.0"
     inkscape:pageopacity="0.0"
     inkscape:pageshadow="2"
     inkscape:zoom="1.5"
     inkscape:cx="98.635413"
     inkscape:cy="213.71245"
     inkscape:document-units="px"
     inkscape:current-layer="layer1"
     showgrid="true"
     inkscape:window-width="1478"
     inkscape:window-height="908"
     inkscape:window-x="344"
     inkscape:window-y="62"
     inkscape:window-maximized="0"
     inkscape:snap-grids="false">
    <inkscape:grid
       type="xygrid"
       id="grid3946"
       empspacing="5"
       visible="true"
       enabled="true"
       snapvisiblegridlinesonly="true" />
  </sodipodi:namedview>
  <metadata
     id="metadata3943">
    <rdf:RDF>
      <cc:Work
         rdf:about="">
        <dc:format>image/svg+xml</dc:format>
        <dc:type
           rdf:resource="http://purl.org/dc/dcmitype/StillImage" />
        <dc:title></dc:title>
      </cc:Work>
    </rdf:RDF>
  </metadata>
  <g
     inkscape:label="Calque 1"
     inkscape:groupmode="layer"
     id="layer1"
     transform="translate(0,-652.36218)">
    <rect
       style="fill:#808080;fill-opacity:1;stroke:none"
       id="rect3948"
       width="80"
       height="120"
       x="160"
       y="912.36218" />
    <rect
       style="fill:#808080;fill-opacity:1;stroke:none"
       id="rect3948-3"
       width="80"
       height="80"
       x="812.36218"
       y="-170"
       transform="matrix(0,1,-1,0,0,0)" />
    <path
       style="fill:#ffff00;fill-opacity:1;stroke:none"
       d="m 19.66665,850.69553 50.000023,-60 0,120 -50.000023,-60 z"
       id="path3972"
       inkscape:connector-curvature="0" />
    <path
       style="fill:#808080;fill-opacity:1;stroke:#808080;stroke-width:1.06051171;stroke-linecap:round;stroke-linejoin:miter;stroke-miterlimit:4;stroke-opacity:1;stroke-dasharray:none"
       d="m 187.23126,942.36218 c -19.53825,-2.85343 -37.31994,-11.77312 -51.25552,-25.7109 -14.25847,-14.26072 -23.00571,-31.68306 -26.03674,-51.85876 -0.92006,-6.12432 -0.80661,-20.1111 0.21297,-26.25379 6.62526,-39.91586 36.99569,-70.05292 76.8347,-76.24432 5.97974,-0.92931 20.72549,-0.92204 26.23164,0.0129 20.85237,3.54086 37.12129,11.86716 51.34703,26.27896 14.04689,14.2306 22.29395,30.67069 25.43466,50.70265 1.26554,8.07185 0.85149,23.11494 -0.85562,31.08565 -5.97067,27.87794 -23.72627,50.91095 -48.98757,63.54787 -15.46819,7.73794 -35.67119,10.95959 -52.92555,8.43971 l 0,0 z m 20.56459,-64.75835 c 9.22609,-2.62959 16.71761,-11.20355 18.32653,-20.97451 1.83466,-11.14193 -3.85266,-22.638 -13.68576,-27.66372 -4.27274,-2.1838 -7.49754,-2.95596 -12.37236,-2.9625 -5.33596,-0.007 -9.4221,1.08391 -13.6357,3.641 -5.97316,3.62489 -10.279,9.38949 -11.92925,15.9707 -5.08052,20.26124 13.11408,37.74138 33.29654,31.98903 z"
       id="path3894"
       inkscape:connector-curvature="0" />
    <rect
       style="fill:#ffff00;fill-opacity:1;stroke:none"
       id="rect3968"
       width="60"
       height="90.333336"
       x="-882.02887"
       y="69.666672"
       ry="0"
       transform="matrix(0,-1,1,0,0,0)" />
    <rect
       style="fill:#ffff00;fill-opacity:1;stroke:none"
       id="rect3968-8"
       width="60"
       height="110"
       x="170"
       y="892.36218" />
    <path
       sodipodi:type="arc"
       style="fill:none;stroke:#ffff00;stroke-width:0.59292699;stroke-linecap:round;stroke-linejoin:miter;stroke-miterlimit:4;stroke-opacity:1;stroke-dasharray:none"
       id="path3896"
       sodipodi:cx="200"
       sodipodi:cy="205"
       sodipodi:rx="50"
       sodipodi:ry="45"
       d="m 250,205 c 0,24.85281 -22.38576,45 -50,45 -27.61424,0 -50,-20.14719 -50,-45 0,-24.85281 22.38576,-45 50,-45 27.61424,0 50,20.14719 50,45 z"
       transform="matrix(0.8,0,0,0.88888911,-257.33333,610.80658)" />
    <path
       sodipodi:type="arc"
       style="fill:none;stroke:#ffff00;stroke-width:0.48327407;stroke-linecap:round;stroke-linejoin:miter;stroke-miterlimit:4;stroke-opacity:1;stroke-dasharray:none"
       id="path3898"
       sodipodi:cx="190"
       sodipodi:cy="200"
       sodipodi:rx="90"
       sodipodi:ry="80"
       d="m 280,200 c 0,44.18278 -40.29437,80 -90,80 -49.70563,0 -90,-35.81722 -90,-80 0,-44.18278 40.29437,-80 90,-80 49.70563,0 90,35.81722 90,80 z"
       transform="matrix(0.97747868,0,0,1.0950797,-283.40882,574.01844)" />
    <path
       style="fill:none;stroke:#ffff00;stroke-width:0.73590362px;stroke-linecap:butt;stroke-linejoin:miter;stroke-opacity:1"
       d="m -97.333333,780.13356 0,102.89529 0,0"
       id="path3902"
       inkscape:connector-curvature="0" />
    <path
       style="fill:none;stroke:#ffff00;stroke-width:0.73590362px;stroke-linecap:butt;stroke-linejoin:miter;stroke-opacity:1"
       d="m -98.55235,792.36218 -102.8953,0 0,0"
       id="path3902-7"
       inkscape:connector-curvature="0" />
    <path
       style="fill:#ffff00;fill-opacity:1;stroke:none"
       d="m 201.03541,916.87761 0,-23.29455 1.83334,-0.0116 c 1.00833,-0.007 3.93333,-0.45248 6.5,-0.99136 11.64587,-2.44508 22.40942,-10.91853 27.51873,-21.66373 1.48196,-3.11667 3.02151,-7.25643 3.42121,-9.19948 1.1267,-5.47721 0.87852,-13.32705 -0.6047,-19.12641 -3.53822,-13.83423 -14.69116,-25.00315 -28.66858,-28.70959 -5.598,-1.48444 -15.01902,-1.51131 -20.58376,-0.0587 -11.09798,2.89701 -21.146,11.08907 -25.95566,21.16142 -2.64033,5.52937 -4.12724,10.8009 -4.12724,14.63226 l 0,1.96718 -23.76548,0 -23.76548,0 0.4023,-5.21696 c 1.87412,-24.30303 14.36409,-47.23659 33.79532,-62.05353 11.08721,-8.45435 22.17157,-13.53813 36,-16.51119 7.95595,-1.7105 26.68862,-1.71321 34.66667,-0.005 17.08811,3.65877 32.04524,11.78383 44.35739,24.09598 12.50061,12.50061 20.31056,27.10329 24.08023,45.02405 1.61441,7.6748 1.62263,24.0521 0.0161,32.13987 -3.37027,16.96731 -11.02347,31.63309 -22.91497,43.91179 -12.9958,13.41896 -28.02724,21.6674 -45.87212,25.17216 -3.66666,0.72013 -8.84166,1.47192 -11.5,1.67064 l -4.83333,0.3613 0,-23.29455 z"
       id="path3783"
       inkscape:connector-curvature="0" />
    <rect
       style="fill:#ffffff;fill-opacity:1;stroke:none"
       id="rect3948-3-9"
       width="4.9127631"
       height="69.546356"
       x="-763.69922"
       y="-549.3537"
       transform="matrix(-0.70120664,-0.71295809,0.72927937,-0.68421605,0,0)" />
    <path
       style="fill:#808080;fill-opacity:1;stroke:none"
       d="m 300.09723,854.61916 -3.40243,-0.23468 -0.0801,-5.47539 c -0.15262,-10.43108 -3.88458,-28.6514 -7.55253,-36.87343 -0.56351,-1.26312 -0.49983,-1.34821 1.92769,-2.57539 1.38073,-0.69803 2.94439,-1.30688 3.47479,-1.35302 1.50808,-0.13119 5.55597,12.20692 7.49444,22.84322 1.47254,8.07982 2.5691,22.4387 1.79752,23.53744 -0.14126,0.20128 -1.78805,0.26032 -3.65935,0.13125 z"
       id="path4114"
       inkscape:connector-curvature="0" />
    <path
       style="fill:#808080;fill-opacity:1;stroke:none"
       d="m 284.12109,909.50883 -2.79847,-1.94939 2.74435,-4.73863 c 5.22823,-9.02755 11.3875,-26.57664 12.46487,-35.51505 0.16549,-1.37319 0.26385,-1.41347 2.97698,-1.21911 1.54319,0.11052 3.19751,0.39153 3.67626,0.62445 1.36111,0.66248 -1.50489,13.32715 -5.30643,23.44825 -2.88783,7.68847 -9.32419,20.57074 -10.55065,21.11697 -0.22461,0.1001 -1.66775,-0.69533 -3.2069,-1.76744 z"
       id="path4114-8"
       inkscape:connector-curvature="0" />
    <path
       style="fill:#808080;fill-opacity:1;stroke:none"
       d="m 285.2325,797.8583 -2.93707,1.73358 -3.16704,-4.46723 c -6.03349,-8.51044 -19.42842,-21.4133 -27.10801,-26.1122 -1.1798,-0.72186 -1.17551,-0.82806 0.13014,-3.21429 0.74261,-1.35727 1.68649,-2.74465 2.09749,-3.08308 1.16859,-0.96223 11.49247,6.9138 19.11403,14.58195 5.78967,5.82509 14.82566,17.03806 14.81203,18.38058 -0.002,0.2459 -1.32621,1.22723 -2.94156,2.18068 z"
       id="path4114-83"
       inkscape:connector-curvature="0" />
  </g>
</svg>
