<?xml version="1.0" encoding="UTF-8" standalone="no"?>
<!-- Created with Inkscape (http://www.inkscape.org/) -->

<svg
   xmlns:dc="http://purl.org/dc/elements/1.1/"
   xmlns:cc="http://creativecommons.org/ns#"
   xmlns:rdf="http://www.w3.org/1999/02/22-rdf-syntax-ns#"
   xmlns:svg="http://www.w3.org/2000/svg"
   xmlns="http://www.w3.org/2000/svg"
   xmlns:sodipodi="http://sodipodi.sourceforge.net/DTD/sodipodi-0.dtd"
   xmlns:inkscape="http://www.inkscape.org/namespaces/inkscape"
   width="400"
   height="400"
   id="svg3938"
   version="1.1"
   inkscape:version="0.48.5 r10040"
   sodipodi:docname="raX_exit90.svg"
   inkscape:export-filename="/Users/Shared/data/Projects/Android/RBook/bookpict/svg/pict/raX_exit90.png"
   inkscape:export-xdpi="14.4"
   inkscape:export-ydpi="14.4">
  <defs
     id="defs3940" />
  <sodipodi:namedview
     id="base"
     pagecolor="#ffffff"
     bordercolor="#666666"
     borderopacity="1.0"
     inkscape:pageopacity="0.0"
     inkscape:pageshadow="2"
     inkscape:zoom="1.5"
     inkscape:cx="82.159987"
     inkscape:cy="160.37912"
     inkscape:document-units="px"
     inkscape:current-layer="layer1"
     showgrid="true"
     inkscape:window-width="1478"
     inkscape:window-height="908"
     inkscape:window-x="274"
     inkscape:window-y="45"
     inkscape:window-maximized="0"
     inkscape:snap-grids="false">
    <inkscape:grid
       type="xygrid"
       id="grid3946"
       empspacing="5"
       visible="true"
       enabled="true"
       snapvisiblegridlinesonly="true" />
  </sodipodi:namedview>
  <metadata
     id="metadata3943">
    <rdf:RDF>
      <cc:Work
         rdf:about="">
        <dc:format>image/svg+xml</dc:format>
        <dc:type
           rdf:resource="http://purl.org/dc/dcmitype/StillImage" />
        <dc:title></dc:title>
      </cc:Work>
    </rdf:RDF>
  </metadata>
  <g
     inkscape:label="Calque 1"
     inkscape:groupmode="layer"
     id="layer1"
     transform="translate(0,-652.36218)">
    <rect
       style="fill:#808080;fill-opacity:1;stroke:none"
       id="rect3948"
       width="80"
       height="120"
       x="160"
       y="912.36218" />
    <rect
       style="fill:#808080;fill-opacity:1;stroke:none"
       id="rect3948-1"
       width="80"
       height="90"
       x="-346.66666"
       y="698.36218" />
    <path
       style="fill:#808080;fill-opacity:1;stroke:#808080;stroke-width:1.06051171;stroke-linecap:round;stroke-linejoin:miter;stroke-miterlimit:4;stroke-opacity:1;stroke-dasharray:none"
       d="m 187.23126,942.36218 c -19.53825,-2.85343 -37.31994,-11.77312 -51.25552,-25.7109 -14.25847,-14.26072 -23.00571,-31.68306 -26.03674,-51.85876 -0.92006,-6.12432 -0.80661,-20.1111 0.21297,-26.25379 6.62526,-39.91586 36.99569,-70.05292 76.8347,-76.24432 5.97974,-0.92931 20.72549,-0.92204 26.23164,0.0129 20.85237,3.54086 37.12129,11.86716 51.34703,26.27896 14.04689,14.2306 22.29395,30.67069 25.43466,50.70265 1.26554,8.07185 0.85149,23.11494 -0.85562,31.08565 -5.97067,27.87794 -23.72627,50.91095 -48.98757,63.54787 -15.46819,7.73794 -35.67119,10.95959 -52.92555,8.43971 l 0,0 z m 20.56459,-64.75835 c 9.22609,-2.62959 16.71761,-11.20355 18.32653,-20.97451 1.83466,-11.14193 -3.85266,-22.638 -13.68576,-27.66372 -4.27274,-2.1838 -7.49754,-2.95596 -12.37236,-2.9625 -5.33596,-0.007 -9.4221,1.08391 -13.6357,3.641 -5.97316,3.62489 -10.279,9.38949 -11.92925,15.9707 -5.08052,20.26124 13.11408,37.74138 33.29654,31.98903 z"
       id="path3894"
       inkscape:connector-curvature="0" />
    <rect
       style="fill:#ffff00;fill-opacity:1;stroke:none"
       id="rect3968-8"
       width="60"
       height="110"
       x="170"
       y="892.36218" />
    <path
       sodipodi:type="arc"
       style="fill:none;stroke:#ffff00;stroke-width:0.59292699;stroke-linecap:round;stroke-linejoin:miter;stroke-miterlimit:4;stroke-opacity:1;stroke-dasharray:none"
       id="path3896"
       sodipodi:cx="200"
       sodipodi:cy="205"
       sodipodi:rx="50"
       sodipodi:ry="45"
       d="m 250,205 c 0,24.85281 -22.38576,45 -50,45 -27.61424,0 -50,-20.14719 -50,-45 0,-24.85281 22.38576,-45 50,-45 27.61424,0 50,20.14719 50,45 z"
       transform="matrix(0.8,0,0,0.88888911,-257.33333,610.80658)" />
    <path
       sodipodi:type="arc"
       style="fill:none;stroke:#ffff00;stroke-width:0.48327407;stroke-linecap:round;stroke-linejoin:miter;stroke-miterlimit:4;stroke-opacity:1;stroke-dasharray:none"
       id="path3898"
       sodipodi:cx="190"
       sodipodi:cy="200"
       sodipodi:rx="90"
       sodipodi:ry="80"
       d="m 280,200 c 0,44.18278 -40.29437,80 -90,80 -49.70563,0 -90,-35.81722 -90,-80 0,-44.18278 40.29437,-80 90,-80 49.70563,0 90,35.81722 90,80 z"
       transform="matrix(0.97747868,0,0,1.0950797,-283.40882,574.01844)" />
    <path
       style="fill:none;stroke:#ffff00;stroke-width:0.73590362px;stroke-linecap:butt;stroke-linejoin:miter;stroke-opacity:1"
       d="m -99.333333,782.13356 0,102.89529 0,0"
       id="path3902"
       inkscape:connector-curvature="0" />
    <path
       style="fill:#ffff00;stroke:#ffff00;stroke-width:0.73590362px;stroke-linecap:butt;stroke-linejoin:miter;stroke-opacity:1"
       d="m -96.000001,796.36217 -75.877059,-69.49904 0,0"
       id="path3902-7"
       inkscape:connector-curvature="0" />
    <path
       style="fill:#ffff00;stroke:#ffff00;stroke-width:0.73590362px;stroke-linecap:butt;stroke-linejoin:miter;stroke-opacity:1"
       d="m -96.061467,788.946 -75.877063,69.49904 0,0"
       id="path3902-7-0"
       inkscape:connector-curvature="0" />
    <path
       style="fill:none;stroke:#ffff00;stroke-width:0.73590362px;stroke-linecap:butt;stroke-linejoin:miter;stroke-opacity:1"
       d="m -95.88568,791.69552 -102.89529,0 0,0"
       id="path3902-72"
       inkscape:connector-curvature="0" />
    <path
       sodipodi:type="arc"
       style="fill:none;stroke:#000000;stroke-opacity:1"
       id="path3129"
       sodipodi:cx="199"
       sodipodi:cy="200"
       sodipodi:rx="27.666666"
       sodipodi:ry="26"
       d="m 226.66667,200 c 0,14.3594 -12.38679,26 -27.66667,26 -15.27988,0 -27.66667,-11.6406 -27.66667,-26 0,-14.3594 12.38679,-26 27.66667,-26 15.27988,0 27.66667,11.6406 27.66667,26 z"
       transform="matrix(0.8408144,0,0,0.91549445,-327.66603,800.5864)" />
    <path
       sodipodi:type="arc"
       style="fill:none;stroke:#000000;stroke-width:0.29800433;stroke-miterlimit:4;stroke-opacity:1;stroke-dasharray:none"
       id="path3129-1"
       sodipodi:cx="199"
       sodipodi:cy="200"
       sodipodi:rx="27.666666"
       sodipodi:ry="26"
       d="m 226.66667,200 c 0,14.3594 -12.38679,26 -27.66667,26 -15.27988,0 -27.66667,-11.6406 -27.66667,-26 0,-14.3594 12.38679,-26 27.66667,-26 15.27988,0 27.66667,11.6406 27.66667,26 z"
       transform="matrix(3.445819,0,0,3.6672643,-845.39912,251.22698)" />
    <path
       style="fill:none;stroke:#000000;stroke-width:0.84271991px;stroke-linecap:butt;stroke-linejoin:miter;stroke-opacity:1"
       d="m -157.44821,980.33274 -87.10358,79.39226 0,0"
       id="path3902-7-0-1"
       inkscape:connector-curvature="0" />
    <path
       style="fill:#b3b3b3;fill-opacity:1;stroke:none"
       d="m -315.93901,1106.665 c -5.09222,-1.6474 -8.93505,-3.5392 -11.1481,-5.4883 -1.12395,-0.9899 -2.31575,-2.8725 -2.31942,-3.6638 l -0.003,-0.5965 24.60358,0 24.60357,0 0.21653,0.545 c 0.17148,0.4315 1.47085,1.2643 3.06798,1.9663 0.15827,0.07 -35.27884,7.9674 -36.04168,8.0326 -0.2269,0.019 -1.56776,-0.3385 -2.97969,-0.7953 l 0,0 z"
       id="path3955"
       inkscape:connector-curvature="0" />
    <path
       style="fill:none;stroke:#000000;stroke-width:0.75698149px;stroke-linecap:butt;stroke-linejoin:miter;stroke-opacity:1"
       d="m -158.66667,873.60251 0,108.87399 0,0"
       id="path3902-4"
       inkscape:connector-curvature="0" />
    <path
       style="fill:#ffffff;fill-opacity:1;stroke:none"
       d="m 125.03987,909.45659 c -24.07988,-32.21299 -25.47364,-75.1378 -3.52076,-108.4316 12.90154,-19.56651 31.68172,-33.18981 54.45167,-39.49968 5.52873,-1.53209 16.79188,-3.24539 21.45327,-3.26336 l 3.16667,-0.0122 0,34.29249 0,34.29248 -3.16667,0.46117 c -8.57308,1.24852 -15.49194,6.08774 -19.21812,13.4416 -1.78574,3.52428 -1.94855,4.43048 -1.94855,10.8456 0,7.00218 0.44725,8.65898 4.15811,15.40358 0.2246,0.4082 -50.06455,46.75412 -51.14711,47.1366 -0.322,0.11377 -2.22483,-1.98623 -4.22851,-4.66666 l 0,0 z"
       id="path3975"
       inkscape:connector-curvature="0" />
    <rect
       style="fill:#808080;fill-opacity:1;stroke:none"
       id="rect3948-3"
       width="4.666667"
       height="66"
       x="-194.66669"
       y="-826.36212"
       transform="scale(-1,-1)" />
    <rect
       style="fill:#808080;fill-opacity:1;stroke:none"
       id="rect3948-1-4"
       width="80"
       height="90"
       x="813.75928"
       y="-318.577"
       transform="matrix(0,1,-1,0,0,0)" />
    <path
       style="fill:#ffff00;fill-opacity:1;stroke:none"
       d="m 378.57697,853.75927 -50.00002,-60 0,120 50.00002,-60 z"
       id="path3972"
       inkscape:connector-curvature="0" />
    <rect
       style="fill:#ffff00;fill-opacity:1;stroke:none"
       id="rect3968"
       width="60"
       height="90.333336"
       x="-883.75928"
       y="238.24362"
       ry="0"
       transform="matrix(0,-1,1,0,0,0)" />
    <path
       style="fill:#ffff00;fill-opacity:1;stroke:none"
       d="m 200.08969,916.93491 0,-23.36355 1.5,-0.0116 c 3.3986,-0.0262 11.0921,-2.12234 15.48087,-4.2178 12.87197,-6.14584 20.63968,-17.5365 22.68848,-33.27063 l 0.41234,-3.16666 23.0596,0 23.0596,0 -0.41061,6.83333 c -0.91878,15.29025 -7.04935,31.75798 -16.63633,44.68794 -14.29556,19.28042 -37.79304,32.93556 -59.86685,34.79056 -2.72457,0.229 -5.92877,0.5661 -7.12044,0.7491 l -2.16666,0.3328 0,-23.36352 z"
       id="path2996"
       inkscape:connector-curvature="0" />
    <path
       sodipodi:type="arc"
       style="fill:none;stroke:#000000;stroke-width:0.29800433;stroke-miterlimit:4;stroke-opacity:1;stroke-dasharray:none"
       id="path3129-1-8"
       sodipodi:cx="199"
       sodipodi:cy="200"
       sodipodi:rx="27.666666"
       sodipodi:ry="26"
       d="m 226.66667,200 c 0,14.3594 -12.38679,26 -27.66667,26 -15.27988,0 -27.66667,-11.6406 -27.66667,-26 0,-14.3594 12.38679,-26 27.66667,-26 15.27988,0 27.66667,11.6406 27.66667,26 z"
       transform="matrix(3.6211498,0,0,3.8543389,-880.26329,213.17891)" />
    <path
       sodipodi:type="arc"
       style="fill:none;stroke:#000000;stroke-width:0.29800433;stroke-miterlimit:4;stroke-opacity:1;stroke-dasharray:none"
       id="path3129-1-0"
       sodipodi:cx="199"
       sodipodi:cy="200"
       sodipodi:rx="27.666666"
       sodipodi:ry="26"
       d="m 226.66667,200 c 0,14.3594 -12.38679,26 -27.66667,26 -15.27988,0 -27.66667,-11.6406 -27.66667,-26 0,-14.3594 12.38679,-26 27.66667,-26 15.27988,0 27.66667,11.6406 27.66667,26 z"
       transform="matrix(3.959314,0,0,4.2133969,-947.55979,141.3401)" />
    <path
       style="fill:none;stroke:#000000;stroke-width:0.84271991px;stroke-linecap:butt;stroke-linejoin:miter;stroke-opacity:1"
       d="m -158.72428,981.50841 -101.2181,60.37429 0,0"
       id="path3902-7-0-1-2"
       inkscape:connector-curvature="0" />
    <path
       style="fill:#808080;fill-opacity:1;stroke:none"
       d="m 254.76009,937.42612 -1.76331,-2.91927 4.43483,-3.21224 c 8.44875,-6.1196 21.21493,-19.64484 25.83561,-27.37175 0.70986,-1.18706 0.81609,-1.18385 3.21545,0.0975 1.36474,0.72879 2.76164,1.65853 3.10423,2.06609 0.97404,1.15876 -6.79676,11.56209 -14.38713,19.26109 -5.76601,5.84852 -16.88665,14.9979 -18.22925,14.9979 -0.24592,0 -1.24062,-1.31368 -2.21043,-2.91928 z"
       id="path4114"
       inkscape:connector-curvature="0" />
  </g>
</svg>
