<?xml version="1.0" encoding="UTF-8" standalone="no"?>
<!-- Created with Inkscape (http://www.inkscape.org/) -->

<svg
   xmlns:dc="http://purl.org/dc/elements/1.1/"
   xmlns:cc="http://creativecommons.org/ns#"
   xmlns:rdf="http://www.w3.org/1999/02/22-rdf-syntax-ns#"
   xmlns:svg="http://www.w3.org/2000/svg"
   xmlns="http://www.w3.org/2000/svg"
   xmlns:sodipodi="http://sodipodi.sourceforge.net/DTD/sodipodi-0.dtd"
   xmlns:inkscape="http://www.inkscape.org/namespaces/inkscape"
   width="400"
   height="400"
   id="svg3938"
   version="1.1"
   inkscape:version="0.48.5 r10040"
   sodipodi:docname="rbook_logo.svg"
   inkscape:export-filename="/Users/luc/Documents/bookpict/rbook_logo.png"
   inkscape:export-xdpi="90"
   inkscape:export-ydpi="90">
  <defs
     id="defs3940" />
  <sodipodi:namedview
     id="base"
     pagecolor="#ffffff"
     bordercolor="#666666"
     borderopacity="1.0"
     inkscape:pageopacity="0.0"
     inkscape:pageshadow="2"
     inkscape:zoom="1.0606602"
     inkscape:cx="102.39675"
     inkscape:cy="112.98808"
     inkscape:document-units="px"
     inkscape:current-layer="layer1"
     showgrid="false"
     inkscape:window-width="1478"
     inkscape:window-height="908"
     inkscape:window-x="297"
     inkscape:window-y="55"
     inkscape:window-maximized="0"
     inkscape:snap-grids="false">
    <inkscape:grid
       type="xygrid"
       id="grid3946"
       empspacing="5"
       visible="true"
       enabled="true"
       snapvisiblegridlinesonly="true" />
  </sodipodi:namedview>
  <metadata
     id="metadata3943">
    <rdf:RDF>
      <cc:Work
         rdf:about="">
        <dc:format>image/svg+xml</dc:format>
        <dc:type
           rdf:resource="http://purl.org/dc/dcmitype/StillImage" />
        <dc:title />
      </cc:Work>
    </rdf:RDF>
  </metadata>
  <g
     inkscape:label="Calque 1"
     inkscape:groupmode="layer"
     id="layer1"
     transform="translate(0,-652.36218)">
    <path
       style="fill:#808080;fill-opacity:1;stroke:#808080;stroke-width:0.33696023;stroke-linecap:round;stroke-linejoin:miter;stroke-miterlimit:4;stroke-opacity:1;stroke-dasharray:none"
       d="m 154.705,841.98085 -17.4583,-30.00925 0,-4.79417 0,-4.79416 18.20592,0 18.20592,0 11.68155,27.29734 c 6.42486,15.01353 11.7327,27.57238 11.79522,27.90855 0.0992,0.53337 -23.74402,14.49869 -24.63302,14.42793 -0.18646,-0.0149 -8.19524,-13.53115 -17.79729,-30.03624 z"
       id="path3821"
       inkscape:connector-curvature="0" />
    <rect
       style="fill:#808080;fill-opacity:1;stroke:none"
       id="rect3948-0"
       width="80"
       height="150.00003"
       x="-286.83221"
       y="841.19257"
       transform="matrix(0.8660254,-0.5,0.5,0.8660254,0,0)" />
    <path
       style="fill:#808080;fill-opacity:1;stroke:#808080;stroke-width:0.33385214;stroke-linecap:round;stroke-linejoin:miter;stroke-miterlimit:4;stroke-opacity:1;stroke-dasharray:none"
       d="m 185.62175,851.6298 -14.76564,-25.67938 0,-11.77025 0,-11.77026 2.16666,-0.007 c 5.5042,-0.0184 13.64574,-3.88073 18.5497,-8.79997 13.56721,-13.60948 10.93362,-37.12678 -5.31584,-47.46926 -3.40817,-2.16923 -10.49763,-4.5792 -13.47075,-4.5792 l -1.92977,0 0,-39.45587 0,-39.45587 4.83333,0.0116 c 11.95352,0.0289 29.98331,4.69964 42.44882,10.99674 32.62672,16.48174 54.52549,46.7022 60.1084,82.95005 1.06265,6.89938 1.07555,24.64678 0.0226,31.09657 -3.99359,24.46267 -14.28292,44.8758 -31.14649,61.7919 -9.17243,9.20101 -17.91541,15.44437 -29.75528,21.24823 -4.88056,2.39244 -15.39897,6.5715 -16.54001,6.5715 -0.24205,0 -7.08463,-11.55573 -15.20573,-25.67939 z"
       id="path3797"
       inkscape:connector-curvature="0" />
    <rect
       style="fill:#808080;fill-opacity:1;stroke:none"
       id="rect3948-5"
       width="79.333336"
       height="33.095448"
       x="662.36218"
       y="-172.21439"
       transform="matrix(0,1,-1,0,0,0)" />
    <rect
       style="fill:#808080;fill-opacity:1;stroke:none"
       id="rect3948"
       width="80"
       height="340.00003"
       x="60.000008"
       y="662.36218" />
    <path
       style="fill:#ffff00;fill-opacity:1;stroke:none"
       d="m 311.33334,1033.0288 -76.96152,-13.3013 103.92305,-60.00004 -26.96153,73.30134 z"
       id="path3972"
       inkscape:connector-curvature="0" />
    <rect
       style="fill:#ffff00;fill-opacity:1;stroke:none"
       id="rect3968"
       width="61.790833"
       height="196.66626"
       x="-273.56784"
       y="802.80273"
       ry="0"
       transform="matrix(0.86381444,-0.50381009,0.49619956,0.8682085,0,0)" />
    <rect
       style="fill:#ffff00;fill-opacity:1;stroke:none"
       id="rect3968-8"
       width="60"
       height="310"
       x="69.999992"
       y="673.02887" />
    <rect
       style="fill:#ffff00;fill-opacity:1;stroke:none"
       id="rect3968-2"
       width="59.78561"
       height="103.05228"
       x="673.02887"
       y="-173.71895"
       ry="0"
       transform="matrix(0,1,-1,0,0,0)" />
    <path
       style="fill:#ffff00;fill-opacity:1;stroke:#ffff00;stroke-width:1.27478039;stroke-linecap:round;stroke-linejoin:miter;stroke-miterlimit:4;stroke-opacity:1;stroke-dasharray:none"
       d="m 235.75085,840.36895 c -1.83081,-3.1295 -5.99311,-10.38191 -9.24957,-16.11647 -3.25645,-5.73456 -6.30277,-10.84794 -6.76959,-11.36309 -0.71247,-0.7862 -4.86606,1.39674 -25.86693,13.59454 -13.75999,7.99214 -25.4868,14.71193 -26.05959,14.93286 -0.79508,0.30669 -2.88247,-2.80339 -8.82471,-13.14826 -4.28082,-7.45251 -7.7833,-13.68636 -7.7833,-13.85302 0,-0.16664 6.24868,-0.23631 13.88596,-0.15478 13.44692,0.14354 14.05523,0.0916 19.23959,-1.64169 13.37531,-4.47189 23.65501,-15.51307 27.11916,-29.12802 2.57124,-10.10562 1.14981,-21.50125 -3.80116,-30.47406 -3.46515,-6.28002 -10.81835,-13.39692 -17.02636,-16.47922 -5.88174,-2.92029 -11.13222,-4.42287 -15.49319,-4.43382 l -3.17871,-0.008 0,-29.23607 0,-29.23608 4.51712,0.33569 c 19.36836,1.43937 34.99593,6.67343 50.00221,16.74694 34.9235,23.44371 51.2626,66.37404 40.85163,107.33599 -4.06962,16.01193 -12.10023,30.56994 -23.90513,43.33557 l -4.3287,4.68099 -3.32873,-5.69001 0,0 z"
       id="path3910"
       inkscape:connector-curvature="0" />
    <path
       sodipodi:type="arc"
       style="fill:none;stroke:#808080;stroke-width:0.5;stroke-linecap:round;stroke-linejoin:miter;stroke-miterlimit:4;stroke-opacity:1;stroke-dasharray:none"
       id="path3003"
       sodipodi:cx="330"
       sodipodi:cy="80"
       sodipodi:rx="30"
       sodipodi:ry="30"
       d="m 360,80 a 30,30 0 1 1 -60,0 30,30 0 1 1 60,0 z"
       transform="translate(-504.66671,678.36217)" />
    <path
       sodipodi:type="arc"
       style="fill:none;stroke:#808080;stroke-width:0.13636364;stroke-linecap:round;stroke-linejoin:miter;stroke-miterlimit:4;stroke-opacity:1;stroke-dasharray:none"
       id="path3003-9"
       sodipodi:cx="330"
       sodipodi:cy="80"
       sodipodi:rx="30"
       sodipodi:ry="30"
       d="m 360,80 a 30,30 0 1 1 -60,0 30,30 0 1 1 60,0 z"
       transform="matrix(3.6666665,0,0,3.6666668,-1384.6666,465.02883)" />
    <path
       style="fill:#808080;stroke:#808080;stroke-width:0.70244586;stroke-linecap:butt;stroke-linejoin:miter;stroke-miterlimit:4;stroke-opacity:1;stroke-dasharray:none"
       d="m -174.66671,638.6056 0,236.84647"
       id="path3793"
       inkscape:connector-curvature="0" />
  </g>
</svg>
